<svg width="37" height="36" viewBox="0 0 37 36" fill="none" xmlns="http://www.w3.org/2000/svg">
<g id="Tensorlake Logo" clip-path="url(#clip0_224_1639)">
<path id="Vector" d="M36.3199 20.0618C36.069 22.4836 35.349 24.7636 34.2362 26.8036C33.1235 27.2618 31.7817 27.5781 30.0362 27.5781C26.3708 27.5781 24.418 26.16 22.8471 25.0254C21.5053 24.0545 20.5344 23.3563 18.3744 23.3563C16.2144 23.3563 15.2435 24.0545 13.9017 25.0254C12.3308 26.16 10.378 27.5781 6.71259 27.5781C4.97804 27.5781 3.62532 27.2618 2.51259 26.8036C1.39986 24.7636 0.679864 22.4836 0.428955 20.0618C1.11623 20.4436 1.69441 20.8691 2.23986 21.2618C3.58168 22.2327 4.54168 22.9309 6.71259 22.9309C8.87259 22.9309 9.8435 22.2327 11.1853 21.2618C12.7562 20.1272 14.709 18.72 18.3744 18.72C22.0399 18.72 23.9926 20.1272 25.5635 21.2618C26.9053 22.2327 27.8762 22.9309 30.0362 22.9309C32.1962 22.9309 33.1671 22.2327 34.509 21.2618C35.0435 20.8691 35.6326 20.4545 36.3199 20.0618Z" fill="#4AA4F4"/>
<path id="Vector_2" d="M29.8508 32.1382C28.2253 33.48 26.3708 34.5381 24.3417 35.2472C23.7962 34.92 23.3053 34.56 22.858 34.2327C21.5162 33.2618 20.5453 32.5636 18.3853 32.5636C16.2253 32.5636 15.2544 33.2618 13.9126 34.2327C13.4544 34.56 12.9744 34.9091 12.418 35.2472C10.3889 34.5381 8.53439 33.48 6.90894 32.1382C8.93803 32.1054 9.88712 31.4181 11.1853 30.469C12.7562 29.3345 14.7089 27.9272 18.3744 27.9272C22.0398 27.9272 23.9926 29.3345 25.5635 30.469C26.8617 31.4181 27.8108 32.0945 29.8508 32.1382Z" fill="#4AA4F4"/>
<path id="Top" d="M18.3746 0.185547C27.8294 0.185547 35.5836 7.46021 36.3458 16.7183H30.6226C29.8833 10.6085 24.685 5.88009 18.3746 5.88009C12.0642 5.88009 6.86579 10.6085 6.12649 16.7183H0.40332C1.16552 7.46021 8.91969 0.185547 18.3746 0.185547Z" fill="#060D3F"/>
</g>
<defs>
<clipPath id="clip0_224_1639">
<rect width="36" height="36" fill="white" transform="translate(0.341797)"/>
</clipPath>
</defs>
</svg>
