<svg xmlns="http://www.w3.org/2000/svg" fill="none" viewBox="0 0 115 26.65531914893617" style="max-height: 500px" width="115" height="26.65531914893617">
<g id="Group 38">
<path fill="#FFFFFF" d="M39.5815 6.5731V20.4032H36.8037V6.5731H39.5815ZM48.4175 9.26775C49.7271 9.26775 50.7854 9.68388 51.5922 10.5161C52.3991 11.335 52.8026 12.4842 52.8026 13.9636V20.4032H50.0247V14.3401C50.0247 13.4683 49.8064 12.8012 49.37 12.3389C48.9334 11.8634 48.3382 11.6256 47.5842 11.6256C46.817 11.6256 46.2085 11.8634 45.7588 12.3389C45.3222 12.8012 45.104 13.4683 45.104 14.3401V20.4032H42.3261V9.42628H45.104V10.7934C45.4743 10.3179 45.9439 9.94804 46.5127 9.68388C47.0948 9.40646 47.7297 9.26775 48.4175 9.26775ZM54.7296 14.8751C54.7296 13.7655 54.9484 12.7814 55.3847 11.9228C55.8342 11.0642 56.4426 10.4037 57.2101 9.94142C57.9775 9.4791 58.8304 9.24794 59.77 9.24794C60.4842 9.24794 61.165 9.40646 61.8135 9.72351C62.4614 10.0273 62.9772 10.4368 63.3609 10.9519V5.74092H66.1784V20.4032H63.3609V18.7784C63.0172 19.32 62.5343 19.7559 61.9127 20.0861C61.2911 20.4163 60.5697 20.5814 59.7497 20.5814C58.8238 20.5814 57.9775 20.3437 57.2101 19.8681C56.4426 19.3926 55.8342 18.7256 55.3847 17.867C54.9484 16.9951 54.7296 15.9979 54.7296 14.8751ZM63.3806 14.9147C63.3806 14.2411 63.2486 13.6665 62.9844 13.1909C62.7196 12.7021 62.3622 12.3323 61.9127 12.0814C61.4626 11.8171 60.9803 11.685 60.4639 11.685C59.9481 11.685 59.4723 11.8106 59.0354 12.0615C58.5991 12.3125 58.2417 12.6823 57.9644 13.1711C57.6996 13.6467 57.5675 14.2146 57.5675 14.8751C57.5675 15.5356 57.6996 16.1168 57.9644 16.6187C58.2417 17.1074 58.5991 17.4839 59.0354 17.7481C59.4855 18.0122 59.9612 18.1444 60.4639 18.1444C60.9803 18.1444 61.4626 18.0189 61.9127 17.7679C62.3622 17.5037 62.7196 17.1339 62.9844 16.6583C63.2486 16.1696 63.3806 15.5884 63.3806 14.9147ZM79.1101 14.6769C79.1101 15.0732 79.0838 15.4299 79.0306 15.7469H70.9947C71.061 16.5395 71.3389 17.1603 71.8284 17.6094C72.3179 18.0585 72.9198 18.283 73.6341 18.283C74.6657 18.283 75.3996 17.8405 75.8366 16.9555H78.8322C78.5148 18.0122 77.9064 18.8841 77.0068 19.571C76.1073 20.2446 75.0028 20.5814 73.6932 20.5814C72.6353 20.5814 71.6826 20.3503 70.8363 19.888C70.0031 19.4124 69.348 18.7453 68.8716 17.8868C68.409 17.0282 68.1771 16.0375 68.1771 14.9147C68.1771 13.7787 68.409 12.7814 68.8716 11.9228C69.3349 11.0642 69.9828 10.4037 70.8165 9.94142C71.6497 9.4791 72.6084 9.24794 73.6932 9.24794C74.7386 9.24794 75.671 9.47253 76.491 9.9216C77.3242 10.3707 77.9661 11.0114 78.4156 11.8436C78.8788 12.6626 79.1101 13.607 79.1101 14.6769ZM76.2334 13.8844C76.2197 13.1711 75.9621 12.6031 75.4594 12.1804C74.9568 11.7445 74.3417 11.5265 73.6137 11.5265C72.9264 11.5265 72.3442 11.7379 71.8679 12.1606C71.4053 12.5701 71.1208 13.1447 71.015 13.8844H76.2334ZM87.2094 20.4032L84.9472 16.9952L82.9431 20.4032H79.9672L83.5587 14.8949L79.9272 9.42628H83.0627L85.3046 12.8145L87.3284 9.42628H90.3049L86.6936 14.8949L90.3443 20.4032H87.2094ZM93.2617 8.11858C92.7728 8.11858 92.3622 7.96668 92.0316 7.66283C91.7143 7.34584 91.5553 6.95616 91.5553 6.49384C91.5553 6.03152 91.7143 5.64846 92.0316 5.34461C92.3622 5.02762 92.7728 4.8691 93.2617 4.8691C93.7512 4.8691 94.1546 5.02762 94.472 5.34461C94.8031 5.64846 94.9681 6.03152 94.9681 6.49384C94.9681 6.95616 94.8031 7.34584 94.472 7.66283C94.1546 7.96668 93.7512 8.11858 93.2617 8.11858ZM94.631 9.42628V20.4032H91.8529V9.42628H94.631ZM102.415 11.7049H100.491V20.4032H97.6733V11.7049H96.4229V9.42628H97.6733V8.87151C97.6733 7.52418 98.057 6.53347 98.8238 5.89944C99.5912 5.26541 100.748 4.96818 102.296 5.00781V7.34584C101.622 7.33265 101.152 7.44492 100.888 7.68264C100.623 7.92043 100.491 8.34974 100.491 8.97058V9.42628H102.415V11.7049ZM114.732 9.42628L107.926 25.5944H104.969L107.35 20.1257L102.946 9.42628H106.061L108.899 17.0942L111.775 9.42628H114.732Z" id="Vector" style="--darkreader-inline-fill: #040a2e;" data-darkreader-inline-fill=""/>
<g id="Clip path group">
<mask height="27" width="27" y="0" x="0" maskUnits="userSpaceOnUse" style="mask-type:luminance" id="mask0_420_67">
<g id="clip0_1_57">
<path fill="white" d="M26.9222 0H0V26.8842H26.9222V0Z" id="Vector_2" style="--darkreader-inline-fill: #e8e6e3;" data-darkreader-inline-fill=""/>
</g>
</mask>
<g mask="url(#mask0_420_67)">
<g id="Group">
<path fill="#FFFFFF" d="M26.9056 14.9818C26.718 16.7904 26.1795 18.4931 25.3474 20.0165C24.5152 20.3586 23.5118 20.5949 22.2065 20.5949C19.4653 20.5949 18.0049 19.5358 16.8302 18.6886C15.8267 17.9635 15.1006 17.4421 13.4853 17.4421C11.87 17.4421 11.1438 17.9635 10.1404 18.6886C8.9656 19.5358 7.50526 20.5949 4.76412 20.5949C3.46695 20.5949 2.45529 20.3586 1.62319 20.0165C0.791019 18.4931 0.252557 16.7904 0.0649414 14.9818C0.578897 15.2669 1.01133 15.5847 1.41919 15.878C2.42266 16.603 3.14061 17.1244 4.76412 17.1244C6.37944 17.1244 7.10552 16.603 8.10899 15.878C9.28375 15.0307 10.7441 13.9798 13.4853 13.9798C16.2264 13.9798 17.6868 15.0307 18.8615 15.878C19.865 16.603 20.5911 17.1244 22.2065 17.1244C23.8218 17.1244 24.5479 16.603 25.5513 15.878C25.9511 15.5847 26.3916 15.2751 26.9056 14.9818Z" id="Vector_3" style="--darkreader-inline-fill: #0156ae;" data-darkreader-inline-fill=""/>
<path fill="#FFFFFF" d="M22.068 24.0002C20.8524 25.0023 19.4654 25.7925 17.948 26.322C17.5401 26.0777 17.173 25.8088 16.8385 25.5644C15.835 24.8394 15.109 24.318 13.4936 24.318C11.8783 24.318 11.1522 24.8394 10.1487 25.5644C9.80606 25.8088 9.44708 26.0695 9.03103 26.322C7.51361 25.7925 6.12672 25.0023 4.91113 24.0002C6.42855 23.9758 7.13831 23.4625 8.10915 22.7538C9.28391 21.9066 10.7443 20.8556 13.4855 20.8556C16.2266 20.8556 17.6869 21.9066 18.8618 22.7538C19.8326 23.4625 20.5423 23.9677 22.068 24.0002Z" id="Vector_4" style="--darkreader-inline-fill: #0156ae;" data-darkreader-inline-fill=""/>
<path fill="#FFFFFF" d="M13.4856 0.138556C20.5563 0.138556 26.3552 5.57117 26.9251 12.4849H22.6451C22.0923 7.92228 18.2047 4.39114 13.4856 4.39114C8.76635 4.39114 4.87884 7.92228 4.32591 12.4849H0.0458984C0.615918 5.57117 6.41479 0.138556 13.4856 0.138556Z" id="Vector_5" style="--darkreader-inline-fill: #040a2e;" data-darkreader-inline-fill=""/>
</g>
</g>
</g>
</g>
</svg>