<svg width="150" height="33" viewBox="0 0 150 33" fill="none" xmlns="http://www.w3.org/2000/svg">
<path d="M53.8442 10.2861V12.5485H50.1139V24.2726H47.3085V12.5485H43.5781V10.2861H53.8442Z" fill="#051668"/>
<path d="M65.6279 19.5669H57.5135C57.5839 20.3713 57.8654 20.9947 58.3581 21.4472C58.8508 21.8997 59.4642 22.1309 60.1781 22.1309C61.2238 22.1309 61.9578 21.6785 62.4002 20.7836H65.4268C65.105 21.8494 64.4917 22.7342 63.5867 23.418C62.6818 24.1017 61.5657 24.4536 60.2384 24.4536C59.1726 24.4536 58.2073 24.2123 57.3627 23.7397C56.5181 23.2671 55.8545 22.5935 55.3819 21.7287C54.9093 20.864 54.668 19.8585 54.668 18.7223C54.668 17.576 54.8992 16.5605 55.3718 15.6958C55.8444 14.831 56.498 14.1573 57.3325 13.6948C58.1772 13.2222 59.1424 12.991 60.2384 12.991C61.2942 12.991 62.2394 13.2222 63.0739 13.6747C63.9085 14.1272 64.5621 14.7707 65.0145 15.6053C65.467 16.4398 65.7083 17.395 65.7083 18.481C65.7083 18.8832 65.6882 19.2452 65.6279 19.5669ZM62.8024 17.6866C62.7924 16.9627 62.531 16.3896 62.0181 15.9572C61.5053 15.5248 60.892 15.3036 60.158 15.3036C59.4642 15.3036 58.881 15.5148 58.4084 15.9371C57.9358 16.3594 57.6442 16.9426 57.5336 17.6866H62.8024Z" fill="#051668"/>
<path d="M76.6187 14.268C77.4332 15.1025 77.8454 16.2689 77.8454 17.7671V24.2827H75.0401V18.1492C75.0401 17.2644 74.8189 16.5907 74.3764 16.1181C73.934 15.6455 73.3307 15.4042 72.5766 15.4042C71.8024 15.4042 71.189 15.6455 70.7466 16.1181C70.2941 16.5907 70.0729 17.2744 70.0729 18.1492V24.2827H67.2676V13.182H70.0729V14.5696C70.4449 14.087 70.9276 13.715 71.5108 13.4334C72.094 13.1619 72.7274 13.0212 73.4212 13.0212C74.7384 13.0111 75.8042 13.4334 76.6187 14.268Z" fill="#051668"/>
<path d="M81.8074 23.971C81.0835 23.6392 80.5103 23.1968 80.0981 22.6337C79.6758 22.0706 79.4445 21.4472 79.4043 20.7735H82.2297C82.28 21.2059 82.4912 21.5578 82.8632 21.8393C83.2352 22.1209 83.6877 22.2616 84.2407 22.2616C84.7736 22.2616 85.196 22.1511 85.4976 21.9399C85.7993 21.7287 85.9501 21.4573 85.9501 21.1154C85.9501 20.7534 85.7691 20.4819 85.397 20.3009C85.025 20.1199 84.4418 19.9188 83.6475 19.7077C82.823 19.5066 82.1392 19.2954 81.6164 19.0843C81.0835 18.8731 80.631 18.5413 80.2489 18.0989C79.8668 17.6565 79.6758 17.0632 79.6758 16.3192C79.6758 15.7058 79.8568 15.1427 80.2087 14.64C80.5606 14.1372 81.0734 13.735 81.737 13.4334C82.4007 13.1418 83.1749 12.991 84.0698 12.991C85.3971 12.991 86.4528 13.3228 87.2371 13.9864C88.0214 14.65 88.4638 15.5349 88.5443 16.661H85.8596C85.8194 16.2186 85.6384 15.8667 85.3066 15.6053C84.9747 15.3438 84.5424 15.2131 83.9894 15.2131C83.4766 15.2131 83.0945 15.3036 82.8129 15.4947C82.5414 15.6857 82.4007 15.9471 82.4007 16.2789C82.4007 16.651 82.5917 16.9325 82.9637 17.1336C83.3358 17.3247 83.919 17.5258 84.7033 17.7269C85.5077 17.928 86.1713 18.1391 86.6841 18.3503C87.2069 18.5614 87.6594 18.8932 88.0415 19.3457C88.4236 19.7982 88.6146 20.3814 88.6347 21.1154C88.6347 21.7589 88.4538 22.332 88.1018 22.8348C87.7499 23.3476 87.2371 23.7397 86.5735 24.0313C85.9099 24.3229 85.1356 24.4637 84.2608 24.4637C83.3458 24.4536 82.5314 24.2927 81.8074 23.971Z" fill="#051668"/>
<path d="M92.4755 23.7497C91.6208 23.2771 90.9471 22.6035 90.4645 21.7387C89.9718 20.874 89.7305 19.8685 89.7305 18.7323C89.7305 17.5961 89.9818 16.5906 90.4846 15.7259C90.9873 14.8611 91.6711 14.1875 92.5358 13.7149C93.4005 13.2423 94.3759 13.001 95.4417 13.001C96.5075 13.001 97.4829 13.2423 98.3476 13.7149C99.2123 14.1875 99.896 14.8611 100.399 15.7259C100.902 16.5906 101.153 17.5961 101.153 18.7323C101.153 19.8685 100.891 20.874 100.379 21.7387C99.8659 22.6035 99.1721 23.2771 98.2973 23.7497C97.4225 24.2223 96.4472 24.4636 95.3613 24.4636C94.2854 24.4536 93.3302 24.2223 92.4755 23.7497ZM96.7891 21.6382C97.2315 21.3868 97.5935 21.0248 97.8649 20.5221C98.1364 20.0294 98.2671 19.4261 98.2671 18.7223C98.2671 17.6665 97.9856 16.852 97.4326 16.289C96.8796 15.7259 96.1958 15.4343 95.4015 15.4343C94.6071 15.4343 93.9234 15.7158 93.3905 16.289C92.8475 16.852 92.576 17.6665 92.576 18.7223C92.576 19.778 92.8375 20.5925 93.3704 21.1556C93.8932 21.7186 94.5669 22.0102 95.3613 22.0102C95.864 22.0102 96.3466 21.8896 96.7891 21.6382Z" fill="#051668"/>
<path d="M106.934 13.5137C107.517 13.1819 108.181 13.011 108.925 13.011V15.9571H108.181C107.296 15.9571 106.632 16.1682 106.19 16.5805C105.737 16.9928 105.516 17.7167 105.516 18.7423V24.2725H102.711V13.1719H105.516V14.8913C105.878 14.3081 106.351 13.8455 106.934 13.5137Z" fill="#051668"/>
<path d="M113.118 9.44141V24.2725H110.312V9.44141H113.118Z" fill="#051668"/>
<path d="M115.33 15.6958C115.782 14.831 116.386 14.1573 117.15 13.6948C117.914 13.2222 118.779 12.991 119.724 12.991C120.548 12.991 121.272 13.1619 121.896 13.4937C122.519 13.8255 123.012 14.2478 123.394 14.7606V13.182H126.219V24.2827H123.394V22.6639C123.032 23.1867 122.539 23.6191 121.896 23.9609C121.252 24.3028 120.528 24.4737 119.704 24.4737C118.769 24.4737 117.914 24.2324 117.15 23.7498C116.386 23.2671 115.772 22.5935 115.33 21.7187C114.877 20.8439 114.656 19.8384 114.656 18.7022C114.666 17.566 114.888 16.5705 115.33 15.6958ZM123.002 16.9727C122.73 16.4901 122.378 16.108 121.916 15.8466C121.463 15.5852 120.971 15.4544 120.448 15.4544C119.925 15.4544 119.442 15.5852 119 15.8365C118.558 16.0879 118.206 16.4599 117.924 16.9526C117.653 17.4453 117.512 18.0185 117.512 18.6821C117.512 19.3457 117.653 19.939 117.924 20.4317C118.196 20.9344 118.558 21.3165 119.01 21.588C119.463 21.8595 119.935 21.9902 120.448 21.9902C120.971 21.9902 121.453 21.8594 121.916 21.598C122.368 21.3366 122.73 20.9646 123.002 20.4719C123.273 19.9792 123.404 19.396 123.404 18.7223C123.404 18.0486 123.263 17.4554 123.002 16.9727Z" fill="#051668"/>
<path d="M135.049 24.2725L131.278 19.5467V24.2725H128.473V9.44141H131.278V17.8775L135.008 13.1718H138.658L133.772 18.7423L138.699 24.2725H135.049Z" fill="#051668"/>
<path d="M149.919 19.5669H141.805C141.875 20.3713 142.156 20.9947 142.649 21.4472C143.142 21.8997 143.755 22.1309 144.469 22.1309C145.515 22.1309 146.249 21.6785 146.691 20.7836H149.718C149.396 21.8494 148.783 22.7342 147.878 23.418C146.973 24.1017 145.857 24.4536 144.529 24.4536C143.464 24.4536 142.498 24.2123 141.654 23.7397C140.809 23.2671 140.145 22.5935 139.673 21.7287C139.2 20.864 138.959 19.8585 138.959 18.7223C138.959 17.576 139.19 16.5605 139.663 15.6958C140.135 14.831 140.789 14.1573 141.624 13.6948C142.468 13.2222 143.433 12.991 144.529 12.991C145.585 12.991 146.53 13.2222 147.365 13.6747C148.2 14.1272 148.853 14.7707 149.306 15.6053C149.758 16.4398 149.999 17.395 149.999 18.481C149.999 18.8832 149.969 19.2452 149.919 19.5669ZM147.093 17.6866C147.083 16.9627 146.822 16.3896 146.309 15.9572C145.796 15.5248 145.183 15.3036 144.449 15.3036C143.755 15.3036 143.172 15.5148 142.699 15.9371C142.227 16.3594 141.935 16.9426 141.825 17.6866H147.093Z" fill="#051668"/>
<path d="M33.2417 16.6209C33.2417 7.44068 25.8011 0 16.6209 0C7.44068 0 0 7.44068 0 16.6209H5.24869C5.24869 10.3365 10.3365 5.24869 16.6209 5.24869C22.9052 5.24869 27.993 10.3365 27.993 16.6209H33.2417Z" fill="#051668"/>
<path d="M33.1609 18.3203C32.9297 20.5525 32.266 22.654 31.2404 24.5342C30.2148 24.9565 28.9781 25.2481 27.3693 25.2481C23.9908 25.2481 22.191 23.941 20.743 22.8953C19.5063 22.0004 18.6114 21.3569 16.6205 21.3569C14.6296 21.3569 13.7347 22.0004 12.498 22.8953C11.05 23.941 9.25021 25.2481 5.87174 25.2481C4.273 25.2481 3.02618 24.9565 2.00058 24.5342C0.97497 22.654 0.311342 20.5525 0.0800781 18.3203C0.713541 18.6722 1.24645 19.0643 1.7492 19.4263C2.98596 20.3212 3.8708 20.9647 5.87174 20.9647C7.86262 20.9647 8.75751 20.3212 9.99427 19.4263C11.4422 18.3806 13.242 17.0835 16.6205 17.0835C19.999 17.0835 21.7988 18.3806 23.2467 19.4263C24.4835 20.3212 25.3784 20.9647 27.3693 20.9647C29.3601 20.9647 30.255 20.3212 31.4918 19.4263C31.9845 19.0643 32.5275 18.6822 33.1609 18.3203Z" fill="#4AA4F4"/>
<path d="M27.1983 29.451C25.7001 30.6878 23.9908 31.6631 22.1206 32.3167C21.6178 32.015 21.1654 31.6832 20.7531 31.3816C19.5163 30.4867 18.6214 29.8432 16.6306 29.8432C14.6397 29.8432 13.7448 30.4867 12.508 31.3816C12.0857 31.6832 11.6433 32.005 11.1305 32.3167C9.26027 31.6631 7.55092 30.6878 6.05273 29.451C7.92296 29.4209 8.79774 28.7874 9.99428 27.9126C11.4422 26.8669 13.242 25.5698 16.6205 25.5698C19.999 25.5698 21.7988 26.8669 23.2467 27.9126C24.4433 28.7874 25.3181 29.4108 27.1983 29.451Z" fill="#4AA4F4"/>
</svg>
