<svg width="150" height="33" viewBox="0 0 150 33" fill="none" xmlns="http://www.w3.org/2000/svg">
<path d="M53.8443 10.2864V12.5488H50.1139V24.2729H47.3085V12.5488H43.5781V10.2864H53.8443Z" fill="black"/>
<path d="M65.6279 19.5672H57.5135C57.5839 20.3716 57.8655 20.995 58.3582 21.4475C58.8509 21.9 59.4642 22.1312 60.1781 22.1312C61.2238 22.1312 61.9579 21.6787 62.4003 20.7839H65.4268C65.1051 21.8497 64.4917 22.7345 63.5868 23.4183C62.6818 24.102 61.5657 24.4539 60.2385 24.4539C59.1726 24.4539 58.2073 24.2126 57.3627 23.74C56.5181 23.2674 55.8545 22.5938 55.3819 21.729C54.9093 20.8643 54.668 19.8588 54.668 18.7226C54.668 17.5763 54.8992 16.5607 55.3718 15.696C55.8444 14.8313 56.498 14.1576 57.3326 13.6951C58.1772 13.2225 59.1425 12.9912 60.2385 12.9912C61.2942 12.9912 62.2394 13.2225 63.074 13.675C63.9085 14.1274 64.5621 14.771 65.0146 15.6055C65.4671 16.4401 65.7084 17.3953 65.7084 18.4813C65.7084 18.8835 65.6883 19.2454 65.6279 19.5672ZM62.8025 17.6869C62.7924 16.9629 62.531 16.3898 62.0182 15.9574C61.5054 15.5251 60.892 15.3039 60.158 15.3039C59.4642 15.3039 58.881 15.515 58.4084 15.9373C57.9359 16.3596 57.6443 16.9428 57.5336 17.6869H62.8025Z" fill="black"/>
<path d="M76.6187 14.2682C77.4332 15.1028 77.8455 16.2692 77.8455 17.7674V24.283H75.0401V18.1495C75.0401 17.2646 74.8189 16.5909 74.3765 16.1184C73.9341 15.6458 73.3308 15.4045 72.5766 15.4045C71.8024 15.4045 71.189 15.6458 70.7466 16.1184C70.2941 16.5909 70.0729 17.2747 70.0729 18.1495V24.283H67.2676V13.1823H70.0729V14.5699C70.445 14.0872 70.9276 13.7152 71.5108 13.4337C72.094 13.1622 72.7275 13.0214 73.4213 13.0214C74.7385 13.0114 75.8043 13.4337 76.6187 14.2682Z" fill="black"/>
<path d="M81.8074 23.9713C81.0835 23.6395 80.5104 23.1971 80.0981 22.634C79.6758 22.0709 79.4445 21.4475 79.4043 20.7738H82.2298C82.28 21.2062 82.4912 21.5581 82.8632 21.8396C83.2353 22.1212 83.6877 22.2619 84.2408 22.2619C84.7737 22.2619 85.196 22.1513 85.4976 21.9402C85.7993 21.729 85.9501 21.4575 85.9501 21.1157C85.9501 20.7537 85.7691 20.4822 85.3971 20.3012C85.025 20.1202 84.4419 19.9191 83.6475 19.708C82.823 19.5069 82.1393 19.2957 81.6164 19.0846C81.0835 18.8734 80.631 18.5416 80.2489 18.0992C79.8668 17.6567 79.6758 17.0635 79.6758 16.3194C79.6758 15.7061 79.8568 15.143 80.2087 14.6402C80.5606 14.1375 81.0734 13.7353 81.7371 13.4336C82.4007 13.142 83.1749 12.9912 84.0698 12.9912C85.3971 12.9912 86.4529 13.323 87.2372 13.9867C88.0214 14.6503 88.4639 15.5351 88.5443 16.6613H85.8596C85.8194 16.2189 85.6384 15.867 85.3066 15.6055C84.9748 15.3441 84.5424 15.2134 83.9894 15.2134C83.4766 15.2134 83.0945 15.3039 82.8129 15.4949C82.5415 15.686 82.4007 15.9474 82.4007 16.2792C82.4007 16.6512 82.5917 16.9328 82.9638 17.1339C83.3358 17.3249 83.919 17.526 84.7033 17.7271C85.5077 17.9282 86.1713 18.1394 86.6841 18.3505C87.207 18.5617 87.6595 18.8935 88.0416 19.346C88.4236 19.7985 88.6147 20.3817 88.6348 21.1157C88.6348 21.7592 88.4538 22.3323 88.1019 22.8351C87.75 23.3479 87.2371 23.74 86.5735 24.0316C85.9099 24.3232 85.1357 24.464 84.2609 24.464C83.3459 24.4539 82.5314 24.2931 81.8074 23.9713Z" fill="black"/>
<path d="M92.4755 23.75C91.6208 23.2774 90.9471 22.6038 90.4645 21.739C89.9718 20.8743 89.7305 19.8688 89.7305 18.7326C89.7305 17.5964 89.9818 16.5909 90.4846 15.7261C90.9873 14.8614 91.6711 14.1877 92.5358 13.7151C93.4006 13.2425 94.3759 13.0012 95.4417 13.0012C96.5076 13.0012 97.4829 13.2425 98.3476 13.7151C99.2124 14.1877 99.8961 14.8614 100.399 15.7261C100.902 16.5909 101.153 17.5964 101.153 18.7326C101.153 19.8688 100.892 20.8743 100.379 21.739C99.8659 22.6038 99.1721 23.2774 98.2973 23.75C97.4226 24.2226 96.4472 24.4639 95.3613 24.4639C94.2854 24.4539 93.3302 24.2226 92.4755 23.75ZM96.7891 21.6385C97.2315 21.3871 97.5935 21.0251 97.865 20.5224C98.1365 20.0297 98.2672 19.4264 98.2672 18.7225C98.2672 17.6668 97.9856 16.8523 97.4326 16.2892C96.8796 15.7261 96.1958 15.4345 95.4015 15.4345C94.6072 15.4345 93.9234 15.7161 93.3905 16.2892C92.8475 16.8523 92.576 17.6668 92.576 18.7225C92.576 19.7783 92.8375 20.5928 93.3704 21.1559C93.8933 21.7189 94.5669 22.0105 95.3613 22.0105C95.864 22.0105 96.3467 21.8899 96.7891 21.6385Z" fill="black"/>
<path d="M106.936 13.5142C107.519 13.1824 108.183 13.0115 108.927 13.0115V15.9576H108.183C107.298 15.9576 106.634 16.1688 106.192 16.581C105.739 16.9933 105.518 17.7172 105.518 18.7428V24.2731H102.713V13.1724H105.518V14.8918C105.88 14.3086 106.353 13.846 106.936 13.5142Z" fill="black"/>
<path d="M113.118 9.44189V24.273H110.312V9.44189H113.118Z" fill="black"/>
<path d="M115.33 15.696C115.782 14.8313 116.386 14.1576 117.15 13.6951C117.914 13.2225 118.779 12.9912 119.724 12.9912C120.548 12.9912 121.272 13.1621 121.896 13.494C122.519 13.8258 123.012 14.2481 123.394 14.7609V13.1823H126.22V24.283H123.394V22.6642C123.032 23.187 122.539 23.6194 121.896 23.9612C121.252 24.3031 120.528 24.474 119.704 24.474C118.769 24.474 117.914 24.2327 117.15 23.7501C116.386 23.2674 115.772 22.5938 115.33 21.719C114.877 20.8442 114.656 19.8387 114.656 18.7025C114.666 17.5662 114.888 16.5708 115.33 15.696ZM123.002 16.973C122.73 16.4904 122.379 16.1083 121.916 15.8468C121.463 15.5854 120.971 15.4547 120.448 15.4547C119.925 15.4547 119.442 15.5854 119 15.8368C118.558 16.0882 118.206 16.4602 117.924 16.9529C117.653 17.4456 117.512 18.0187 117.512 18.6824C117.512 19.346 117.653 19.9392 117.924 20.4319C118.196 20.9347 118.558 21.3168 119.01 21.5883C119.463 21.8597 119.935 21.9905 120.448 21.9905C120.971 21.9905 121.453 21.8597 121.916 21.5983C122.368 21.3369 122.73 20.9648 123.002 20.4721C123.273 19.9795 123.404 19.3963 123.404 18.7226C123.404 18.0489 123.263 17.4556 123.002 16.973Z" fill="black"/>
<path d="M135.049 24.273L131.278 19.5472V24.273H128.473V9.44189H131.278V17.8781L135.008 13.1723H138.658L133.772 18.7428L138.699 24.273H135.049Z" fill="black"/>
<path d="M149.919 19.5672H141.805C141.875 20.3716 142.156 20.995 142.649 21.4475C143.142 21.9 143.755 22.1312 144.469 22.1312C145.515 22.1312 146.249 21.6787 146.691 20.7839H149.718C149.396 21.8497 148.783 22.7345 147.878 23.4183C146.973 24.102 145.857 24.4539 144.529 24.4539C143.464 24.4539 142.498 24.2126 141.654 23.74C140.809 23.2674 140.145 22.5938 139.673 21.729C139.2 20.8643 138.959 19.8588 138.959 18.7226C138.959 17.5763 139.19 16.5607 139.663 15.696C140.135 14.8313 140.789 14.1576 141.624 13.6951C142.468 13.2225 143.433 12.9912 144.529 12.9912C145.585 12.9912 146.53 13.2225 147.365 13.675C148.2 14.1274 148.853 14.771 149.306 15.6055C149.758 16.4401 149.999 17.3953 149.999 18.4813C149.999 18.8835 149.969 19.2454 149.919 19.5672ZM147.093 17.6869C147.083 16.9629 146.822 16.3898 146.309 15.9574C145.796 15.5251 145.183 15.3039 144.449 15.3039C143.755 15.3039 143.172 15.515 142.699 15.9373C142.227 16.3596 141.935 16.9428 141.825 17.6869H147.093Z" fill="black"/>
<path d="M33.2419 16.6209C33.2419 7.44071 25.8012 0 16.621 0C7.44072 0 0 7.44071 0 16.6209H5.24872C5.24872 10.3366 10.3366 5.24872 16.621 5.24872C22.9053 5.24872 27.9932 10.3366 27.9932 16.6209H33.2419Z" fill="black"/>
<path d="M33.1611 18.3203C32.9298 20.5525 32.2662 22.654 31.2406 24.5343C30.215 24.9566 28.9782 25.2482 27.3694 25.2482C23.9909 25.2482 22.1911 23.941 20.7431 22.8953C19.5064 22.0004 18.6115 21.3569 16.6206 21.3569C14.6297 21.3569 13.7348 22.0004 12.498 22.8953C11.0501 23.941 9.25025 25.2482 5.87177 25.2482C4.27302 25.2482 3.0262 24.9566 2.00059 24.5343C0.974975 22.654 0.311344 20.5525 0.0800781 18.3203C0.713544 18.6722 1.24646 19.0643 1.74921 19.4263C2.98598 20.3212 3.87082 20.9647 5.87177 20.9647C7.86266 20.9647 8.75756 20.3212 9.99432 19.4263C11.4422 18.3806 13.2421 17.0835 16.6206 17.0835C19.9991 17.0835 21.7989 18.3806 23.2468 19.4263C24.4836 20.3212 25.3785 20.9647 27.3694 20.9647C29.3603 20.9647 30.2552 20.3212 31.492 19.4263C31.9847 19.0643 32.5276 18.6822 33.1611 18.3203Z" fill="black"/>
<path d="M27.1984 29.4513C25.7002 30.6881 23.9909 31.6634 22.1207 32.317C21.6179 32.0153 21.1654 31.6835 20.7532 31.3819C19.5164 30.487 18.6215 29.8435 16.6306 29.8435C14.6397 29.8435 13.7448 30.487 12.5081 31.3819C12.0857 31.6835 11.6433 32.0053 11.1305 32.317C9.26028 31.6634 7.55093 30.6881 6.05273 29.4513C7.92297 29.4211 8.79775 28.7877 9.9943 27.9129C11.4422 26.8672 13.2421 25.5701 16.6206 25.5701C19.999 25.5701 21.7989 26.8672 23.2468 27.9129C24.4434 28.7877 25.3182 29.4111 27.1984 29.4513Z" fill="black"/>
</svg>
