<svg height="260" viewBox="238 153 836 260" width="836" xmlns="http://www.w3.org/2000/svg" xmlns:xlink="http://www.w3.org/1999/xlink"><marker id="a" markerHeight="8" markerUnits="strokeWidth" markerWidth="10" orient="auto" overflow="visible" stroke-miterlimit="10" viewBox="-1 -4 10 8"><path d="m8 0-8-3v6z" fill="#7f8080" stroke="#7f8080"/></marker><g fill="none"><path d="m354 260h130v55.5h-130z" fill="#fff"/><path d="m354 260h130v55.5h-130z" stroke="#000" stroke-linecap="round" stroke-linejoin="round"/><text fill="#000" transform="translate(359 278.526)"><tspan fill="#000" font-family="Helvetica Neue" font-size="16" x="2.368" y="15">Data Repository</tspan></text><path d="m238.5 272.25h57v31h-57z" fill="#fff"/><path d="m238.5 272.25h57v31h-57z" stroke="#000" stroke-linecap="round" stroke-linejoin="round"/><text fill="#000" transform="translate(243.5 278.526)"><tspan fill="#000" font-family="Helvetica Neue" font-size="16" x="8.836" y="15">Text</tspan></text><path d="m295.5 287.75h48.6" marker-end="url(#a)" stroke="#7f8080" stroke-linecap="round" stroke-linejoin="round"/><path d="m504 356.5h138v55.5h-138z" fill="#fff"/><path d="m504 356.5h138v55.5h-138z" stroke="#000" stroke-linecap="round" stroke-linejoin="round"/><text fill="#000" transform="translate(509 365.802)"><tspan fill="#000" font-family="Helvetica Neue" font-size="16" x="22.944" y="15">Embedding </tspan><tspan fill="#000" font-family="Helvetica Neue" font-size="16" x="31.416" y="33.448">Extractor</tspan></text><path d="m702.5 356.5h138v55.5h-138z" fill="#fff"/><path d="m702.5 356.5h138v55.5h-138z" stroke="#000" stroke-linecap="round" stroke-linejoin="round"/><text fill="#000" transform="translate(707.5 375.026)"><tspan fill="#000" font-family="Helvetica Neue" font-size="16" x="19.256" y="15">Vector Index</tspan></text><path d="m642 384.25h50.6" marker-end="url(#a)" stroke="#7f8080" stroke-linecap="round" stroke-linejoin="round"/><path d="m504 154h138v55.5h-138z" fill="#fff"/><path d="m504 154h138v55.5h-138z" stroke="#000" stroke-linecap="round" stroke-linejoin="round"/><text fill="#000" transform="translate(509 172.526)"><tspan fill="#000" font-family="Helvetica Neue" font-size="16" x="13.048" y="15">NER Extractor</tspan></text><path d="m702.5 154h138v55.5h-138z" fill="#fff"/><path d="m702.5 154h138v55.5h-138z" stroke="#000" stroke-linecap="round" stroke-linejoin="round"/><text fill="#000" transform="translate(707.5 172.526)"><tspan fill="#000" font-family="Helvetica Neue" font-size="16" x="22.512" y="15">Entity Store</tspan></text><path d="m642 181.75h50.6" marker-end="url(#a)" stroke="#7f8080" stroke-linecap="round" stroke-linejoin="round"/><path d="m906.5 260h167v55.5h-167z" fill="#fff"/><path d="m906.5 260h167v55.5h-167z" stroke="#000" stroke-linecap="round" stroke-linejoin="round"/><text fill="#000" transform="translate(911.5 278.526)"><tspan fill="#000" font-family="Helvetica Neue" font-size="16" x="57.012" y="15">Query</tspan></text><g marker-end="url(#a)" stroke="#7f8080" stroke-linecap="round" stroke-linejoin="round"><path d="m459.31604 260 65.213-44.88687"/><path d="m463.285 315.5 57.041 35.7432"/><path d="m932.7983 260-95.1895-46.1789"/><path d="m927.1671 315.5-83.7781 37.0004"/></g></g></svg>